<svg width="1920" height="2770" viewBox="0 0 1920 2770" fill="none" xmlns="http://www.w3.org/2000/svg">
<path d="M2248.49 1887.25C2247.81 1878.84 2218.9 1863.97 2108.68 1871.74C1970.91 1881.46 1950.32 2091 1762.39 2038.58C1574.47 1986.16 1708.3 1669.46 1512.21 1550.35C1316.12 1431.24 1208.45 1671.91 1066.11 1603.49C923.774 1535.08 952.055 1313.24 752.875 1233.26C553.695 1153.28 408.106 1431.84 242.204 1372.65C76.302 1313.47 58.0601 932.535 -172.86 829.299" stroke="#5360FE" stroke-width="2"/>
<path d="M2604.11 1924.37C2600.32 1915.08 2556.11 1897.13 2409.55 1899.62C2226.36 1902.74 2269.95 2132.1 1997.66 2064.11C1725.37 1996.12 1798.52 1655.1 1492.43 1513.31C1186.35 1371.51 1122.67 1630.33 906.643 1547.25C690.613 1464.17 653.231 1221.7 356.305 1122.77C59.3786 1023.85 -42.7019 1322.26 -287.484 1248.04C-532.266 1173.82 -686.895 753.789 -1034.72 627.538" stroke="#6CE2F8" stroke-width="3"/>
<circle cx="1691.36" cy="1992.26" r="13.9351" transform="rotate(38.0604 1691.36 1992.26)" fill="#5360FE"/>
<circle cx="213.396" cy="1106.15" r="26.3318" transform="rotate(38.0604 213.396 1106.15)" fill="#04D7CD"/>
</svg>
