<svg width="30" height="31" viewBox="0 0 30 31" fill="none" xmlns="http://www.w3.org/2000/svg">
<path d="M21.5021 0.623535C26.6078 0.623535 30.0011 4.26779 30.0011 9.49753V21.7495C30.0011 26.9795 26.6075 30.6235 21.5006 30.6235H8.4986C3.39315 30.6235 0.00109863 26.9796 0.00109863 21.7495V9.49753C0.00109863 4.27243 3.40224 0.623535 8.4986 0.623535H21.5021ZM21.5021 2.87353H8.4986C4.68161 2.87353 2.2511 5.48109 2.2511 9.49753V21.7495C2.2511 25.7715 4.67324 28.3735 8.4986 28.3735H21.5006C25.3277 28.3735 27.7511 25.7713 27.7511 21.7495V9.49753C27.7511 5.47598 25.3279 2.87353 21.5021 2.87353ZM21.1358 11.2685C21.5352 11.6679 21.5716 12.2929 21.2448 12.7334L21.1358 12.8595L14.0168 19.9785C13.6175 20.3779 12.9926 20.4142 12.5522 20.0876L12.426 19.9787L8.86502 16.4192C8.42559 15.9799 8.42544 15.2676 8.86469 14.8282C9.264 14.4287 9.88899 14.3923 10.3295 14.719L10.4557 14.8279L13.22 17.5912L19.5449 11.2685C19.9842 10.8292 20.6965 10.8292 21.1358 11.2685Z" fill="#EEF7FE"/>
</svg>
