<svg width="20" height="21" viewBox="0 0 20 21" fill="none" xmlns="http://www.w3.org/2000/svg">
<path d="M16.1999 0.516212L15.9327 0.746884L10.0016 6.67883L4.07189 0.753379C3.14148 -0.176884 1.63298 -0.176884 0.702574 0.753379C-0.143253 1.59907 -0.220148 2.92244 0.471891 3.85499L0.702574 4.12216L6.63119 10.0487L0.697632 15.9827C-0.232681 16.9131 -0.232523 18.4213 0.697983 19.3515C1.5439 20.1971 2.86749 20.2738 3.80011 19.5818L4.0673 19.3511L9.99841 13.4154L15.9249 19.3421C16.8553 20.2724 18.3638 20.2724 19.2943 19.3421C20.1401 18.4964 20.217 17.173 19.5249 16.2405L19.2943 15.9733L13.3688 10.0455L19.3024 4.11531C20.2327 3.18495 20.2325 1.6767 19.302 0.746533C18.4561 -0.0990724 17.1325 -0.175816 16.1999 0.516212Z" fill="#04035F"/>
</svg>
